<svg xmlns="http://www.w3.org/2000/svg" viewBox="0 0 128 128" role="img" aria-labelledby="title">
  <title>Anclora Talent</title>
  <rect width="128" height="128" rx="28" fill="#183536" />
  <path
    d="M64 24c11.046 0 20 8.954 20 20 0 8.358-5.128 15.517-12.404 18.503V88h13.5c2.485 0 4.5 2.015 4.5 4.5S87.581 97 85.096 97H42.904c-2.485 0-4.5-2.015-4.5-4.5S40.419 88 42.904 88h13.5V62.503C49.128 59.517 44 52.358 44 44c0-11.046 8.954-20 20-20Zm0 9c-6.075 0-11 4.925-11 11s4.925 11 11 11 11-4.925 11-11-4.925-11-11-11Z"
    fill="#F4DCC1"
  />
  <circle cx="64" cy="44" r="6" fill="#0CB0A5" />
</svg>
